<?xml version="1.0" standalone="no"?>
<!DOCTYPE svg PUBLIC "-//W3C//DTD SVG 20010904//EN"
 "http://www.w3.org/TR/2001/REC-SVG-20010904/DTD/svg10.dtd">
<svg version="1.0" xmlns="http://www.w3.org/2000/svg"
 width="736.000000pt" height="736.000000pt" viewBox="0 0 736.000000 736.000000"
 preserveAspectRatio="xMidYMid meet">

<g transform="translate(0.000000,736.000000) scale(0.100000,-0.100000)"
fill="#000000" stroke="none">
<path d="M3740 4604 c-181 -30 -287 -89 -338 -185 -15 -29 -17 -36 -5 -21 108
140 221 192 415 192 237 0 453 -110 567 -289 23 -35 41 -68 41 -73 0 -5 -39
32 -87 80 -49 49 -115 105 -148 124 -245 141 -552 159 -698 41 -25 -21 -45
-38 -44 -39 1 -2 29 7 62 18 51 17 77 19 180 15 140 -5 222 -28 303 -82 131
-89 202 -281 202 -546 l0 -86 38 -30 c81 -65 90 -202 19 -296 -55 -73 -135
-100 -210 -71 -10 4 -25 -16 -51 -66 -42 -82 -45 -128 -18 -229 l17 -64 85
-23 c147 -39 460 -153 498 -180 48 -34 85 -85 154 -209 61 -110 165 -323 193
-398 10 -26 22 -47 27 -47 5 0 38 14 74 31 94 45 157 107 200 194 31 63 37 87
43 172 7 94 7 96 15 49 14 -79 1 -197 -27 -260 -46 -100 -116 -161 -242 -207
-50 -19 -50 -19 -10 -13 58 8 149 60 196 111 69 75 93 140 97 265 7 174 -26
253 -175 428 -35 41 -75 98 -90 127 -32 66 -28 102 22 227 34 84 36 92 25 137
-7 29 -28 69 -52 99 -62 78 -152 117 -364 156 -11 2 -41 22 -67 44 -61 54 -87
123 -94 250 -2 52 -11 115 -20 140 -8 25 -21 69 -29 99 -61 226 -309 396 -604
415 -41 2 -86 3 -100 0z m1126 -1016 c39 -16 89 -44 112 -63 39 -34 90 -120
78 -132 -3 -3 -12 9 -20 28 -27 65 -113 124 -251 174 -27 10 -54 22 -60 27
-18 17 68 -4 141 -34z"/>
<path d="M3453 4379 c-38 -15 -65 -36 -108 -84 -53 -61 -60 -65 -143 -91 -174
-53 -256 -114 -292 -217 -34 -96 -24 -171 34 -254 115 -163 111 -155 110 -213
0 -76 -28 -125 -129 -227 -123 -124 -131 -177 -55 -343 53 -118 58 -158 27
-251 -14 -41 -28 -89 -32 -106 -7 -34 10 -139 24 -148 5 -2 20 28 35 68 67
176 80 202 136 259 50 51 63 59 144 83 50 15 148 47 220 70 119 39 131 46 147
76 10 19 18 39 19 45 0 6 -29 26 -64 43 -75 37 -139 103 -191 196 -27 48 -42
64 -63 68 -98 20 -170 190 -128 302 10 25 32 57 50 72 29 25 34 35 39 88 4 53
60 215 73 215 3 0 19 -16 36 -36 64 -72 224 -163 413 -235 118 -44 161 -64
187 -86 15 -13 20 -11 53 26 20 22 53 46 72 53 l35 13 -5 110 c-10 211 -77
365 -199 458 -82 63 -333 89 -445 46z m-423 -290 c-80 -102 -91 -234 -29 -365
50 -106 52 -112 24 -79 -51 61 -105 148 -116 188 -20 75 11 184 69 243 23 22
80 64 90 64 1 0 -16 -23 -38 -51z m-92 -836 c-45 -80 -44 -141 2 -243 41 -89
46 -163 15 -220 l-19 -35 -8 59 c-4 32 -25 97 -47 145 -70 152 -65 208 24 297
30 30 56 54 59 54 4 0 -8 -26 -26 -57z"/>
<path d="M785 2473 c-36 -38 -42 -52 -25 -54 6 -1 15 -3 20 -4 6 -1 16 -3 23
-4 8 -1 8 -4 -2 -10 -10 -6 -22 -5 -35 4 -24 17 -46 3 -46 -29 0 -11 23 -133
51 -271 28 -137 52 -261 54 -275 3 -14 18 -92 35 -175 17 -82 39 -199 50 -260
28 -156 43 -208 60 -213 13 -5 13 -3 2 11 -8 9 -12 22 -9 29 4 8 6 7 6 -4 1
-23 20 -23 36 -2 11 15 12 15 17 -4 4 -14 2 -19 -7 -16 -7 3 -15 1 -19 -4 -3
-5 438 -11 1085 -15 l1089 -6 79 79 78 80 -348 0 -348 0 -15 73 c-24 112 -42
197 -111 552 -60 304 -89 446 -100 502 -12 56 30 53 -811 53 l-774 0 -35 -37z
m815 -53 c385 0 701 -4 704 -9 3 -4 -14 -7 -37 -5 -23 2 -359 4 -747 4 -462 1
-699 4 -690 11 8 5 28 7 43 4 16 -2 343 -5 727 -5z m-803 -72 c-3 -8 -6 -5 -6
6 -1 11 2 17 5 13 3 -3 4 -12 1 -19z m-17 -35 c0 -7 -4 -13 -10 -13 -5 0 -10
-14 -10 -31 0 -18 4 -28 10 -24 15 10 24 -23 13 -48 -10 -20 -11 -19 -21 18
-19 74 -23 112 -11 95 8 -11 9 -7 5 20 -5 33 -5 34 9 16 8 -11 15 -26 15 -33z
m1566 -18 c5 -31 7 -60 3 -66 -3 -6 -9 12 -13 40 -4 28 -9 58 -12 66 -4 8 -2
15 3 15 5 0 13 -25 19 -55z m-1559 -27 c-3 -8 -6 -5 -6 6 -1 11 2 17 5 13 3
-3 4 -12 1 -19z m1581 -93 c-1 -14 -6 -25 -10 -25 -4 0 -8 11 -8 25 0 14 4 25
10 25 5 0 9 -11 8 -25z m-41 -17 c-3 -8 -6 -5 -6 6 -1 11 2 17 5 13 3 -3 4
-12 1 -19z m-1540 -40 c-2 -13 -4 -5 -4 17 -1 22 1 32 4 23 2 -10 2 -28 0 -40z
m1593 -25 c0 -27 -4 -43 -9 -37 -8 8 -4 84 5 84 2 0 4 -21 4 -47z m-30 11 c0
-8 -4 -12 -10 -9 -5 3 -10 10 -10 16 0 5 5 9 10 9 6 0 10 -7 10 -16z m-1553
-56 c-3 -7 -5 -2 -5 12 0 14 2 19 5 13 2 -7 2 -19 0 -25z m1600 -30 c-3 -8 -6
-5 -6 6 -1 11 2 17 5 13 3 -3 4 -12 1 -19z m-70 -30 c-3 -7 -5 -2 -5 12 0 14
2 19 5 13 2 -7 2 -19 0 -25z m43 12 c0 -11 -4 -20 -10 -20 -5 0 -10 9 -10 20
0 11 5 20 10 20 6 0 10 -9 10 -20z m-1540 -16 c0 -8 -4 -12 -10 -9 -5 3 -10
10 -10 16 0 5 5 9 10 9 6 0 10 -7 10 -16z m708 7 c26 -13 144 -23 137 -11 -3
6 1 7 10 4 11 -5 13 -10 6 -17 -14 -14 16 -36 49 -37 l25 -1 -23 -9 c-17 -7
-27 -5 -43 11 -44 44 -138 54 -183 18 -14 -11 -26 -16 -26 -11 0 6 6 13 13 15
9 4 8 8 -3 16 -13 10 -13 12 0 21 18 12 18 12 38 1z m75 2 c-7 -2 -21 -2 -30
0 -10 3 -4 5 12 5 17 0 24 -2 18 -5z m117 -3 c0 -5 -2 -10 -4 -10 -3 0 -8 5
-11 10 -3 6 -1 10 4 10 6 0 11 -4 11 -10z m679 -23 c0 -21 -1 -21 -9 -2 -12
28 -12 37 0 30 6 -3 10 -16 9 -28z m-939 -17 c-13 -9 -13 -11 -1 -19 11 -7 12
-15 3 -38 -6 -15 -13 -39 -15 -53 -3 -14 -3 2 -1 34 5 66 -6 68 -17 3 l-6 -42
-1 40 c-1 22 5 49 13 59 9 11 12 29 9 40 -6 20 -5 20 12 3 17 -15 17 -19 4
-27z m280 0 c0 -5 -4 -10 -9 -10 -6 0 -13 5 -16 10 -3 6 1 10 9 10 9 0 16 -4
16 -10z m600 -11 c0 -5 -4 -9 -10 -9 -5 0 -10 7 -10 16 0 8 5 12 10 9 6 -3 10
-10 10 -16z m-1518 -21 c-8 -8 -9 -4 -5 13 4 13 8 18 11 10 2 -7 -1 -18 -6
-23z m1558 12 c0 -5 -4 -10 -10 -10 -5 0 -10 5 -10 10 0 6 5 10 10 10 6 0 10
-4 10 -10z m-1518 -32 c-5 -31 -5 -32 -14 -8 -7 20 0 36 18 40 0 0 -2 -14 -4
-32z m1567 -93 c0 -11 -7 3 -14 30 -8 28 -14 61 -14 75 1 14 7 0 14 -30 8 -30
14 -64 14 -75z m-1602 63 c-3 -7 -5 -2 -5 12 0 14 2 19 5 13 2 -7 2 -19 0 -25z
m918 11 c10 -30 2 -32 -12 -3 -6 13 -7 24 -3 24 5 0 12 -9 15 -21z m-889 -65
c-8 -21 -15 -34 -15 -28 -1 15 20 76 25 71 2 -2 -2 -21 -10 -43z m-23 21 c-3
-9 -8 -14 -10 -11 -3 3 -2 9 2 15 9 16 15 13 8 -4z m928 -57 c-6 -18 -8 -13
-8 22 0 35 2 40 8 22 5 -12 5 -32 0 -44z m33 1 c-8 -17 -9 -13 -9 21 0 34 1
38 9 21 5 -13 5 -29 0 -42z m33 9 c-3 -7 -5 -2 -5 12 0 14 2 19 5 13 2 -7 2
-19 0 -25z m622 -68 c1 -13 0 -13 -9 0 -5 8 -9 26 -9 40 l1 25 8 -25 c4 -14 8
-32 9 -40z m-1590 8 l-1 -43 -8 35 c-8 32 -6 50 6 50 2 0 4 -19 3 -42z m619
17 c-3 -3 -9 2 -12 12 -6 14 -5 15 5 6 7 -7 10 -15 7 -18z m939 -17 c-3 -7 -5
-2 -5 12 0 14 2 19 5 13 2 -7 2 -19 0 -25z m-957 12 c0 -5 -4 -10 -10 -10 -5
0 -10 5 -10 10 0 6 5 10 10 10 6 0 10 -4 10 -10z m290 -3 c0 -18 -34 -57 -50
-57 -7 0 -1 9 14 21 14 11 26 27 26 35 0 8 2 14 5 14 3 0 5 -6 5 -13z m-190
-55 c-12 -4 -50 17 -50 28 0 5 13 1 30 -8 16 -9 25 -18 20 -20z m-70 24 c0 -2
-8 -10 -17 -17 -16 -13 -17 -12 -4 4 13 16 21 21 21 13z m951 -26 c5 0 9 -5 9
-11 0 -8 -5 -8 -15 1 -8 7 -14 20 -14 29 1 13 2 13 6 -1 2 -10 9 -18 14 -18z
m-834 -6 c-3 -3 -12 -4 -19 -1 -8 3 -5 6 6 6 11 1 17 -2 13 -5z m70 0 c-3 -3
-12 -4 -19 -1 -8 3 -5 6 6 6 11 1 17 -2 13 -5z m-134 -11 c-7 -2 -19 -2 -25 0
-7 3 -2 5 12 5 14 0 19 -2 13 -5z m52 -23 c8 -13 -5 -13 -25 0 -13 8 -13 10 2
10 9 0 20 -4 23 -10z m85 0 c0 -5 -5 -10 -11 -10 -5 0 -7 5 -4 10 3 6 8 10 11
10 2 0 4 -4 4 -10z m-135 -10 c-3 -5 -13 -10 -21 -10 -8 0 -14 5 -14 10 0 6 9
10 21 10 11 0 17 -4 14 -10z m921 -25 c-6 -17 -36 -21 -36 -5 0 5 7 7 15 4 11
-4 15 1 16 17 0 13 3 18 6 11 3 -7 2 -19 -1 -27z m-831 15 c3 -5 -1 -10 -9
-10 -9 0 -16 5 -16 10 0 6 4 10 9 10 6 0 13 -4 16 -10z m-735 -35 c0 -8 -2
-15 -4 -15 -2 0 -6 7 -10 15 -3 8 -1 15 4 15 6 0 10 -7 10 -15z m37 -27 c-3
-8 -6 -5 -6 6 -1 11 2 17 5 13 3 -3 4 -12 1 -19z m1543 2 c0 -15 -6 -20 -27
-19 -24 2 -25 2 -5 6 12 2 22 11 22 19 0 8 2 14 5 14 3 0 5 -9 5 -20z m23
-124 c4 -27 4 -47 1 -44 -9 10 -31 127 -25 134 7 7 16 -26 24 -90z m-1593 59
c0 -14 -2 -25 -4 -25 -2 0 -6 11 -8 25 -3 14 -1 25 3 25 5 0 9 -11 9 -25z m27
-7 c-3 -7 -5 -2 -5 12 0 14 2 19 5 13 2 -7 2 -19 0 -25z m1537 -23 c7 -30 7
-30 -9 -7 -9 12 -13 27 -10 33 9 13 11 11 19 -26z m-1527 -27 c-3 -7 -5 -2 -5
12 0 14 2 19 5 13 2 -7 2 -19 0 -25z m-26 -34 c-5 -16 -10 -21 -10 -12 -1 18
10 51 15 45 2 -1 -1 -16 -5 -33z m23 -64 c3 -60 -3 -63 -19 -11 -5 15 -4 21 3
17 7 -4 9 6 5 31 -3 21 -3 35 1 32 3 -3 8 -34 10 -69z m1562 -23 c3 -23 11
-37 17 -34 8 3 12 -9 13 -32 1 -36 1 -36 -9 -8 -6 15 -16 27 -21 27 -6 0 -11
12 -11 28 0 15 -4 41 -8 57 -5 21 -5 25 2 15 6 -8 13 -32 17 -53z m4 -102 c0
-8 -4 -15 -10 -15 -5 0 -7 7 -4 15 4 8 8 15 10 15 2 0 4 -7 4 -15z m-47 -12
c-13 -2 -35 -2 -50 0 -16 2 -5 4 22 4 28 0 40 -2 28 -4z"/>
<path d="M771 2224 c0 -11 3 -14 6 -6 3 7 2 16 -1 19 -3 4 -6 -2 -5 -13z"/>
<path d="M1510 1980 c0 -6 7 -10 15 -10 8 0 15 2 15 4 0 2 -7 6 -15 10 -8 3
-15 1 -15 -4z"/>
<path d="M5743 1793 l-173 -3 0 -281 0 -281 29 -29 29 -29 160 0 c155 0 160 1
186 25 14 13 26 32 26 43 0 15 12 21 61 30 98 18 153 76 166 172 14 102 -80
209 -184 210 l-32 0 -3 73 -3 72 -45 0 c-25 1 -123 0 -217 -2z m-99 -89 c10
-73 7 -264 -4 -264 -5 0 -11 51 -13 118 l-3 117 0 -128 c1 -70 -2 -127 -6
-127 -10 0 -10 204 -2 278 4 28 10 52 14 52 4 0 10 -21 14 -46z m488 -163 c37
-41 44 -76 27 -125 -17 -48 -67 -86 -115 -86 l-34 0 0 124 c0 91 3 125 13 129
26 8 83 -13 109 -42z"/>
</g>
</svg>
